<svg width="653" height="105" viewBox="0 0 653 105" fill="none" xmlns="http://www.w3.org/2000/svg">
<path d="M262 3H330.5V15.7H303.3V82.3H289.7V15.7H262V3ZM149 3V15.7H94V36.1H138.3V48.7H94V69.7H149V82.3H80.5V3H149.2H149ZM183.3 3H165.5L229.3 82.4H247.2L215.2 42.7L247.2 3.1H229.3L206.3 31.7L183.3 3.1V3ZM201.6 59.7L192.6 48.7L165.5 82.4H183.3L201.6 59.7Z" fill="black"/>
<path d="M81 82.3L17 3H0V82.3H13.6V20L63.8 82.3H81Z" fill="black"/>
<path d="M361.105 18.8926H393.713C398.635 18.8926 402.9 19.4121 406.51 20.4512C410.119 21.4629 413.113 22.9395 415.492 24.8809C417.871 26.8223 419.635 29.1875 420.783 31.9766C421.959 34.7656 422.547 37.9238 422.547 41.4512C422.547 43.8301 422.26 46.0996 421.686 48.2598C421.111 50.3926 420.223 52.3613 419.02 54.166C417.844 55.9707 416.354 57.584 414.549 59.0059C412.744 60.4004 410.625 61.5625 408.191 62.4922L422.137 83H406.223L394.164 64.7891H393.795L374.107 64.748V83H361.105V18.8926ZM394.041 53.5098C396.502 53.5098 398.648 53.2227 400.48 52.6484C402.34 52.0742 403.885 51.2676 405.115 50.2285C406.373 49.1895 407.303 47.9316 407.904 46.4551C408.533 44.9512 408.848 43.2832 408.848 41.4512C408.848 37.8691 407.617 35.1074 405.156 33.166C402.695 31.1973 398.99 30.2129 394.041 30.2129H374.107V53.5098H394.041ZM435.801 34.1562H477.395V42.8438H445.707V52.5938H473.77V60.75H445.707V74.3438H478.051V83H435.801V34.1562ZM505.707 34.1562H516.207L539.832 83H529.426L525.52 74.7812H496.988L493.207 83H482.77L505.707 34.1562ZM521.613 66.625L511.051 44.4375L500.77 66.625H521.613ZM547.426 34.1562H565.332C570.561 34.1562 575.103 34.7188 578.957 35.8438C582.811 36.9688 585.999 38.5833 588.52 40.6875C591.061 42.7708 592.947 45.3125 594.176 48.3125C595.426 51.2917 596.051 54.6458 596.051 58.375C596.051 61.9167 595.436 65.1979 594.207 68.2188C592.978 71.2188 591.103 73.8229 588.582 76.0312C586.061 78.2188 582.874 79.9375 579.02 81.1875C575.165 82.4167 570.624 83.0312 565.395 83.0312L547.426 83V34.1562ZM567.77 74.4375C570.728 74.4375 573.322 74.0625 575.551 73.3125C577.78 72.5417 579.634 71.4583 581.113 70.0625C582.613 68.6667 583.738 66.9792 584.488 65C585.238 63.0208 585.613 60.8125 585.613 58.375C585.613 55.9792 585.238 53.8229 584.488 51.9062C583.738 49.9688 582.613 48.3333 581.113 47C579.634 45.6458 577.78 44.6042 575.551 43.875C573.322 43.1458 570.728 42.7812 567.77 42.7812H557.332V74.4375H567.77ZM620.957 70.9062L599.613 34.1562H610.832L625.863 61.9375L640.707 34.1562H651.926L630.863 70.8438V83H620.957V70.9062Z" fill="black"/>
</svg>
